<?xml version="1.0" encoding="UTF-8" standalone="no"?>
<!-- Generator: Adobe Illustrator 19.0.0, SVG Export Plug-In . SVG Version: 6.00 Build 0)  -->

<svg
   xmlns:dc="http://purl.org/dc/elements/1.1/"
   xmlns:cc="http://creativecommons.org/ns#"
   xmlns:rdf="http://www.w3.org/1999/02/22-rdf-syntax-ns#"
   xmlns:svg="http://www.w3.org/2000/svg"
   xmlns="http://www.w3.org/2000/svg"
   xmlns:sodipodi="http://sodipodi.sourceforge.net/DTD/sodipodi-0.dtd"
   xmlns:inkscape="http://www.inkscape.org/namespaces/inkscape"
   version="1.1"
   id="Layer_1"
   x="0px"
   y="0px"
   viewBox="0 0 36.099999 36"
   xml:space="preserve"
   sodipodi:docname="In-Black-0p5in-R.svg"
   width="36.099998"
   height="36"
   inkscape:version="0.92.0 r15299"><metadata
     id="metadata13"><rdf:RDF><cc:Work
         rdf:about=""><dc:format>image/svg+xml</dc:format><dc:type
           rdf:resource="http://purl.org/dc/dcmitype/StillImage" /><dc:title></dc:title></cc:Work></rdf:RDF></metadata><defs
     id="defs11" /><sodipodi:namedview
     pagecolor="#ffffff"
     bordercolor="#666666"
     borderopacity="1"
     objecttolerance="10"
     gridtolerance="10"
     guidetolerance="10"
     inkscape:pageopacity="0"
     inkscape:pageshadow="2"
     inkscape:window-width="1440"
     inkscape:window-height="838"
     id="namedview9"
     showgrid="false"
     inkscape:zoom="6.5555556"
     inkscape:cx="21.15"
     inkscape:cy="18"
     inkscape:window-x="-8"
     inkscape:window-y="-8"
     inkscape:window-maximized="1"
     inkscape:current-layer="Layer_1" /><g
     id="g6"><g
       id="g4"><path
         d="M 33.3,0 H 2.7 C 1.2,0 0,1.2 0,2.6 V 33.4 C 0,34.8 1.2,36 2.7,36 h 30.7 c 1.5,0 2.7,-1.2 2.7,-2.6 V 2.6 C 36,1.2 34.8,0 33.3,0 Z M 10.7,30.7 H 5.3 V 13.5 h 5.3 V 30.7 Z M 8,11.1 C 6.3,11.1 4.9,9.7 4.9,8 4.9,6.3 6.3,5 8,5 c 1.7,0 3.1,1.4 3.1,3.1 0,1.7 -1.4,3 -3.1,3 z m 22.7,19.6 h -5.3 v -8.4 c 0,-2 0,-4.6 -2.8,-4.6 -2.8,0 -3.2,2.2 -3.2,4.4 v 8.5 H 14 V 13.5 h 5.1 v 2.3 h 0.1 c 0.7,-1.4 2.5,-2.8 5.1,-2.8 5.4,0 6.4,3.6 6.4,8.2 z"
         id="path2"
         inkscape:connector-curvature="0" /></g></g></svg>